<?xml version="1.0" encoding="utf-8"?>
<!-- Generator: Adobe Illustrator 21.1.0, SVG Export Plug-In . SVG Version: 6.00 Build 0)  -->
<svg version="1.1" id="圖層_1" xmlns="http://www.w3.org/2000/svg" xmlns:xlink="http://www.w3.org/1999/xlink" x="0px" y="0px"
	 viewBox="0 0 339.8 81.8" style="enable-background:new 0 0 339.8 81.8;" xml:space="preserve">
<style type="text/css">
	.st0{fill:#E0C08F;}
	.st1{fill:none;}
	.st2{fill:#CCA87F;}
</style>
<g>
	<g>
		<path class="st0" d="M128.1,59.5h-7.5l-12.9-16.4c-0.5-0.6-0.8-1.1-1-1.5h-0.1v17.9H101V23h5.7v17.2h0.1c0.2-0.4,0.5-0.9,1-1.5
			L120.2,23h6.9l-14.6,17.5L128.1,59.5z"/>
		<path class="st0" d="M132.5,35.1c2.7-1.6,5.7-2.4,9.2-2.4c6.6,0,9.9,3.4,9.9,10.2v16.5h-5.4v-4h-0.1c-1.8,3-4.4,4.6-7.9,4.6
			c-2.6,0-4.6-0.7-6-2.1c-1.5-1.4-2.2-3.2-2.2-5.6c0-4.9,2.9-7.8,8.7-8.6l7.6-1c0-3.9-1.7-5.8-5.1-5.8c-3.1,0-6,1-8.6,3V35.1z
			 M140.5,47.3c-1.9,0.3-3.2,0.7-4,1.4c-0.8,0.7-1.2,1.7-1.2,3.1c0,1.1,0.4,2.1,1.2,2.8c0.8,0.7,1.9,1.1,3.2,1.1
			c1.9,0,3.4-0.7,4.6-2c1.2-1.3,1.8-3,1.8-5v-2.3L140.5,47.3z"/>
		<path class="st0" d="M164.4,55.9v15.5h-5.5v-38h5.5v4.3h0.1c2-3.3,4.9-4.9,8.8-4.9c3.3,0,5.9,1.2,7.8,3.5c1.9,2.3,2.9,5.5,2.9,9.4
			c0,4.4-1.1,7.8-3.2,10.5c-2.2,2.6-5,3.9-8.6,3.9c-3.3,0-5.8-1.4-7.6-4.1H164.4z M164.4,48.5c0,2,0.6,3.7,1.9,5.1
			c1.3,1.4,2.8,2.1,4.8,2.1c2.3,0,4.1-0.9,5.4-2.7c1.3-1.8,1.9-4.2,1.9-7.3c0-2.7-0.6-4.8-1.8-6.2c-1.2-1.5-2.8-2.2-4.9-2.2
			c-2.1,0-3.9,0.8-5.2,2.3c-1.3,1.5-2,3.5-2,5.8V48.5z"/>
		<path class="st0" d="M189.5,24.4c0-0.9,0.3-1.7,1-2.3c0.6-0.6,1.4-0.9,2.4-0.9c1,0,1.8,0.3,2.4,0.9c0.7,0.6,1,1.4,1,2.3
			c0,0.9-0.3,1.7-1,2.3c-0.7,0.6-1.5,0.9-2.4,0.9c-1,0-1.8-0.3-2.4-0.9C189.8,26.1,189.5,25.4,189.5,24.4z M190.1,59.5V33.4h5.5
			v26.1H190.1z"/>
		<path class="st0" d="M216.8,59.2c-1,0.6-2.5,0.9-4.4,0.9c-4.9,0-7.4-2.7-7.4-8.1V37.8h-4.4v-4.4h4.4v-6.1l5.5-1.7v7.8h6.3v4.4
			h-6.3V51c0,1.6,0.3,2.8,0.9,3.5c0.6,0.7,1.5,1.1,2.8,1.1c1,0,1.9-0.3,2.7-0.8V59.2z"/>
		<path class="st0" d="M219.9,46.7c0-4.3,1.2-7.7,3.7-10.2c2.4-2.5,5.8-3.7,10-3.7c4,0,7.1,1.2,9.4,3.6c2.3,2.4,3.5,5.7,3.5,9.8
			c0,4.2-1.2,7.5-3.7,10.1c-2.4,2.5-5.7,3.8-9.8,3.8c-4,0-7.2-1.2-9.6-3.7C221.1,54,219.9,50.7,219.9,46.7z M225.5,46.5
			c0,2.9,0.7,5.1,2.1,6.7c1.4,1.6,3.3,2.4,5.7,2.4c5,0,7.5-3.1,7.5-9.3c0-3-0.6-5.3-1.9-6.8c-1.3-1.6-3.1-2.3-5.6-2.3
			c-2.4,0-4.3,0.8-5.7,2.5C226.2,41.4,225.5,43.7,225.5,46.5z"/>
		<path class="st0" d="M270.9,27.6L270.9,27.6v27.2v0v4.6h-5.7v-4.6v0V27.6v0V23h5.7V27.6z"/>
		<path class="st0" d="M302.3,59.5h-5.5V44.7c0-5-1.8-7.5-5.5-7.5c-1.8,0-3.4,0.7-4.6,2.1c-1.2,1.4-1.8,3.2-1.8,5.3v14.9h-5.5V33.4
			h5.5v4.3h0.1c1.9-3.3,4.8-4.9,8.5-4.9c5.8,0,8.7,3.6,8.7,10.7V59.5z"/>
		<path class="st0" d="M328.1,58.3c-1.9,1.1-4.4,1.7-7.4,1.7c-3.8,0-6.9-1.2-9.2-3.6c-2.4-2.4-3.5-5.5-3.5-9.4
			c0-4.3,1.3-7.8,3.8-10.4c2.5-2.6,5.9-3.9,10.1-3.9c2.6,0,4.7,0.4,6.3,1.2v5.2c-1.9-1.3-3.9-2-6-2c-2.5,0-4.6,0.9-6.2,2.6
			c-1.6,1.7-2.4,4-2.4,6.9c0,2.8,0.7,5,2.2,6.6c1.5,1.6,3.5,2.4,6,2.4c2.2,0,4.3-0.7,6.2-2.1V58.3z"/>
		<path class="st0" d="M332.8,56.7c0-1,0.3-1.8,1-2.4c0.7-0.6,1.5-0.9,2.5-0.9c0.9,0,1.8,0.3,2.4,0.9c0.7,0.6,1,1.4,1,2.4
			c0,0.9-0.3,1.7-1,2.3c-0.7,0.7-1.5,1-2.5,1c-1,0-1.8-0.3-2.4-1C333.1,58.5,332.8,57.7,332.8,56.7z"/>
	</g>
	<g>
		<g>
			<path class="st0" d="M40.9,81.8C18.4,81.8,0,63.5,0,40.9C0,18.4,18.4,0,40.9,0s40.9,18.4,40.9,40.9
				C81.8,63.5,63.5,81.8,40.9,81.8z M40.9,5.5C21.4,5.5,5.5,21.4,5.5,40.9c0,19.5,15.9,35.4,35.4,35.4c19.5,0,35.4-15.9,35.4-35.4
				C76.4,21.4,60.5,5.5,40.9,5.5z"/>
		</g>
		<g>
			<polygon class="st1" points="32.6,46.4 32.6,46.4 32.6,43.4 32.6,43.4 			"/>
			<polygon class="st1" points="32.6,39.8 32.6,39.8 32.6,36.7 32.6,36.7 			"/>
			<polygon class="st2" points="32.6,46.4 32.6,43.4 32.6,43.4 32.6,39.8 32.6,39.8 32.6,36.7 32.6,36.7 32.6,33.1 32.6,33.1 
				32.6,18.6 21.8,18.6 21.8,60.9 32.6,60.9 32.6,50 32.6,50 32.6,46.4 			"/>
			<g>
				<polygon class="st0" points="57.5,18.6 53.9,18.6 32.6,39.8 32.6,43.4 				"/>
				<polygon class="st0" points="50.8,18.6 47.2,18.6 32.6,33.1 32.6,36.7 				"/>
				<polygon class="st0" points="64.1,18.6 60.6,18.6 32.6,46.4 32.6,50 34.3,48.3 47.2,60.9 50.8,60.9 36.1,46.5 37.6,45 
					53.9,60.9 57.5,60.9 39.4,43.3 40.9,41.7 60.5,60.9 64.1,60.9 42.7,39.9 				"/>
			</g>
		</g>
	</g>
</g>
</svg>
